<?xml version="1.0" standalone="no"?>
<!DOCTYPE svg PUBLIC "-//W3C//DTD SVG 20010904//EN"
 "http://www.w3.org/TR/2001/REC-SVG-20010904/DTD/svg10.dtd">
<svg version="1.0" xmlns="http://www.w3.org/2000/svg"
 width="640.000000pt" height="1280.000000pt" viewBox="0 0 640.000000 1280.000000"
 preserveAspectRatio="xMidYMid meet">
<metadata>
Created by potrace 1.15, written by Peter Selinger 2001-2017
</metadata>
<g transform="translate(0.000000,1280.000000) scale(0.100000,-0.100000)"
fill="#000000" stroke="none">
<path d="M3030 12781 c-30 -10 -83 -30 -117 -44 -34 -15 -75 -27 -90 -27 -47
0 -128 -55 -238 -162 -89 -85 -107 -108 -121 -152 -20 -65 -32 -385 -16 -448
6 -24 20 -128 32 -233 12 -104 26 -204 31 -222 5 -17 33 -52 61 -79 27 -26 57
-63 65 -82 8 -19 26 -53 40 -75 28 -44 31 -90 17 -236 -6 -56 -12 -70 -56
-125 -26 -33 -84 -109 -128 -167 -78 -103 -83 -107 -159 -142 -105 -48 -400
-170 -581 -240 -80 -31 -170 -71 -200 -89 -118 -71 -161 -190 -230 -638 -57
-370 -111 -760 -120 -869 -9 -113 1 -618 15 -771 3 -30 14 -147 25 -260 11
-113 33 -378 50 -590 16 -212 34 -410 40 -440 16 -87 124 -299 231 -455 l48
-70 -14 -90 c-40 -244 -65 -439 -60 -456 4 -12 22 -23 51 -30 24 -6 47 -15 50
-20 2 -5 34 -160 69 -346 80 -418 86 -443 184 -843 104 -425 106 -436 135
-775 53 -603 59 -690 116 -1775 54 -1019 57 -1070 76 -1098 22 -34 110 -71
194 -81 40 -5 77 -14 82 -19 6 -6 -27 -80 -86 -196 -85 -166 -96 -193 -96
-239 0 -61 26 -121 66 -158 l29 -26 220 7 c191 6 235 10 333 34 126 31 123 28
142 126 6 30 14 60 18 67 4 6 32 20 62 30 50 16 57 23 80 68 22 43 25 63 25
150 0 87 -3 104 -22 131 -22 30 -22 31 -2 50 16 16 21 47 34 194 24 282 29
492 16 610 -7 58 -46 269 -86 470 -94 468 -105 591 -105 1160 0 382 6 613 30
1240 5 146 14 427 20 625 13 491 21 638 31 628 13 -13 75 -261 98 -393 27
-154 35 -219 76 -610 19 -184 48 -454 65 -600 58 -525 89 -1032 92 -1490 2
-280 1 -289 -35 -530 -60 -408 -62 -432 -62 -880 l0 -415 24 -40 c13 -22 32
-47 42 -55 18 -14 18 -18 3 -75 -10 -38 -15 -88 -12 -137 4 -89 17 -114 93
-168 58 -41 105 -86 162 -155 l41 -50 194 1 c276 1 353 20 451 115 48 47 50
49 43 91 -10 62 -43 127 -133 264 -89 133 -100 158 -83 179 6 8 55 28 108 44
53 17 106 37 118 45 l21 15 0 1193 c1 1320 9 1649 53 2138 16 179 34 386 40
460 6 74 20 201 30 282 24 182 44 626 36 769 l-7 107 38 6 c21 4 50 9 66 12
l27 6 0 91 c0 50 -9 186 -20 303 l-21 212 86 132 c100 154 142 235 179 345 66
197 122 538 137 840 13 252 6 1052 -11 1300 -5 88 -17 268 -25 400 -41 640
-79 966 -125 1072 -20 46 -68 83 -140 108 -25 9 -169 52 -322 95 -279 80 -376
114 -548 198 -192 93 -329 283 -330 457 0 33 11 57 55 124 30 45 59 98 64 118
6 20 15 100 22 177 l12 141 -27 39 -26 39 0 241 c0 142 -5 257 -11 281 -8 31
-37 66 -132 160 -67 67 -135 126 -152 132 -39 16 -311 63 -356 62 -19 0 -59
-8 -89 -18z"/>
</g>
</svg>
